<svg viewBox="0 0 500 200" width="500" height="200" xmlns="http://www.w3.org/2000/svg">
<defs><marker id="el-a" viewBox="0 0 10 7" refX="10" refY="3.5" markerWidth="7" markerHeight="5" orient="auto"><polygon points="0 0,10 3.5,0 7" fill="#8b90a0"/></marker></defs>
<g font-family="'Courier New',monospace" text-anchor="middle">
<g fill="#6c9fff" font-size="14"><text x="100" y="24">464</text><text x="250" y="24">3857</text><text x="400" y="24">3332</text></g>
</g>
<g stroke="#8b90a0" stroke-width="1.5">
<line x1="100" y1="32" x2="100" y2="58" marker-end="url(#el-a)"/><line x1="250" y1="32" x2="250" y2="58" marker-end="url(#el-a)"/><line x1="400" y1="32" x2="400" y2="58" marker-end="url(#el-a)"/>
</g>
<g fill="#1a1d27" stroke="#2a2e3a" stroke-width="1"><rect x="50" y="64" width="100" height="72" rx="4"/><rect x="200" y="64" width="100" height="72" rx="4"/><rect x="350" y="64" width="100" height="72" rx="4"/></g>
<g font-family="'Courier New',monospace" font-size="11" text-anchor="middle">
<g fill="#e1e4eb"><text x="100" y="84">0.12</text><text x="100" y="98">0.87</text><text x="100" y="112">-0.23</text><text x="250" y="84">-0.34</text><text x="250" y="98">0.56</text><text x="250" y="112">0.91</text><text x="400" y="84">0.78</text><text x="400" y="98">0.23</text><text x="400" y="112">-0.45</text></g>
<g fill="#8b90a0"><text x="100" y="128">...</text><text x="250" y="128">...</text><text x="400" y="128">...</text></g>
</g>
<text x="20" y="100" fill="#8b90a0" font-family="system-ui,sans-serif" font-size="10">Embedding</text>
<text x="20" y="113" fill="#8b90a0" font-family="system-ui,sans-serif" font-size="10">lookup</text>
<g font-family="system-ui,sans-serif" font-size="11" fill="#8b90a0" text-anchor="middle">
<text x="250" y="165">Each token ID is replaced by a dense vector of hundreds or thousands of numbers.</text>
<text x="250" y="181">These vectors are what the transformer processes.</text>
</g>
</svg>
