<svg viewBox="0 0 520 230" width="520" height="230" xmlns="http://www.w3.org/2000/svg">
<defs><marker id="gl-a" viewBox="0 0 10 7" refX="10" refY="3.5" markerWidth="7" markerHeight="5" orient="auto"><polygon points="0 0,10 3.5,0 7" fill="#8b90a0"/></marker></defs>
<g font-family="'Courier New',monospace" font-size="12">
<text x="20" y="22" fill="#8b90a0" font-family="system-ui,sans-serif" font-weight="600">Step 1</text>
<rect x="80" y="6" width="320" height="28" rx="4" fill="#1a1d27" stroke="#2a2e3a"/>
<text x="90" y="25" fill="#e1e4eb">"The capital of France is"</text>
<line x1="400" y1="20" x2="430" y2="20" stroke="#8b90a0" stroke-width="1.5" marker-end="url(#gl-a)"/>
<text x="440" y="25" fill="#4ade80">" Paris"</text>
<text x="20" y="92" fill="#8b90a0" font-family="system-ui,sans-serif" font-weight="600">Step 2</text>
<rect x="80" y="76" width="320" height="28" rx="4" fill="#1a1d27" stroke="#2a2e3a"/>
<text x="90" y="95" fill="#e1e4eb">"The capital of France is</text><text x="342" y="95" fill="#4ade80">Paris</text><text x="377" y="95" fill="#e1e4eb">"</text>
<line x1="400" y1="90" x2="430" y2="90" stroke="#8b90a0" stroke-width="1.5" marker-end="url(#gl-a)"/>
<text x="440" y="95" fill="#4ade80">"."</text>
<text x="20" y="162" fill="#8b90a0" font-family="system-ui,sans-serif" font-weight="600">Step 3</text>
<rect x="80" y="146" width="320" height="28" rx="4" fill="#1a1d27" stroke="#2a2e3a"/>
<text x="90" y="165" fill="#e1e4eb">"The capital of France is Paris</text><text x="374" y="165" fill="#4ade80">.</text><text x="382" y="165" fill="#e1e4eb">"</text>
<line x1="400" y1="160" x2="430" y2="160" stroke="#8b90a0" stroke-width="1.5" marker-end="url(#gl-a)"/>
<text x="440" y="165" fill="#f87171">[EOS]</text>
<text x="260" y="210" fill="#8b90a0" font-family="system-ui,sans-serif" font-size="11" text-anchor="middle">Stop — end of sequence token reached</text>
</g>
</svg>
