<svg viewBox="0 0 460 370" width="460" height="370" xmlns="http://www.w3.org/2000/svg">
<defs><marker id="rg-a" viewBox="0 0 10 7" refX="10" refY="3.5" markerWidth="7" markerHeight="5" orient="auto"><polygon points="0 0,10 3.5,0 7" fill="#8b90a0"/></marker></defs>
<g font-family="system-ui,sans-serif" text-anchor="middle">
<rect x="80" y="8" width="300" height="30" rx="4" fill="#1a1d27" stroke="#2a2e3a"/>
<text x="230" y="28" fill="#e1e4eb" font-family="'Courier New',monospace" font-size="12">"What is our refund policy?"</text>
<line x1="230" y1="38" x2="230" y2="56" stroke="#8b90a0" stroke-width="1.5" marker-end="url(#rg-a)"/>
<rect x="80" y="62" width="300" height="28" rx="4" fill="#1a1d27" stroke="#6c9fff" stroke-width="1"/>
<text x="230" y="81" fill="#6c9fff" font-size="12">1. Embed the query into a vector</text>
<line x1="230" y1="90" x2="230" y2="108" stroke="#8b90a0" stroke-width="1.5" marker-end="url(#rg-a)"/>
<rect x="60" y="114" width="340" height="28" rx="4" fill="#1a1d27" stroke="#6c9fff" stroke-width="1"/>
<text x="230" y="133" fill="#6c9fff" font-size="12">2. Search vector database for similar documents</text>
<line x1="230" y1="142" x2="230" y2="160" stroke="#8b90a0" stroke-width="1.5" marker-end="url(#rg-a)"/>
<rect x="80" y="166" width="300" height="40" rx="4" fill="#1a1d27" stroke="#2a2e3a"/>
<text x="230" y="183" fill="#e1e4eb" font-size="12">3. Retrieve top matching chunks</text>
<text x="230" y="199" fill="#8b90a0" font-size="10">("Refunds are available within 30 days...")</text>
<line x1="230" y1="206" x2="230" y2="224" stroke="#8b90a0" stroke-width="1.5" marker-end="url(#rg-a)"/>
<rect x="50" y="230" width="360" height="40" rx="4" fill="#1a1d27" stroke="#2a2e3a"/>
<text x="230" y="247" fill="#e1e4eb" font-size="12">4. Include chunks in context window</text>
<text x="230" y="263" fill="#8b90a0" font-size="10">alongside system prompt and user query</text>
<line x1="230" y1="270" x2="230" y2="288" stroke="#8b90a0" stroke-width="1.5" marker-end="url(#rg-a)"/>
<rect x="60" y="294" width="340" height="40" rx="4" fill="#1a1d27" stroke="#4ade80" stroke-width="1.5"/>
<text x="230" y="311" fill="#4ade80" font-size="12" font-weight="600">5. Model generates a response</text>
<text x="230" y="327" fill="#4ade80" font-size="10">grounded in the retrieved documents</text>
</g>
</svg>
