<svg viewBox="0 0 600 240" width="600" height="240" xmlns="http://www.w3.org/2000/svg">
<g stroke="#2a2e3a" stroke-width="0.8" opacity="0.5">
<line x1="80" y1="70" x2="212" y2="55"/><line x1="80" y1="70" x2="212" y2="110"/><line x1="80" y1="70" x2="212" y2="165"/>
<line x1="80" y1="120" x2="212" y2="55"/><line x1="80" y1="120" x2="212" y2="110"/><line x1="80" y1="120" x2="212" y2="165"/>
<line x1="80" y1="170" x2="212" y2="55"/><line x1="80" y1="170" x2="212" y2="110"/><line x1="80" y1="170" x2="212" y2="165"/>
<line x1="248" y1="55" x2="332" y2="55"/><line x1="248" y1="55" x2="332" y2="110"/><line x1="248" y1="55" x2="332" y2="165"/>
<line x1="248" y1="110" x2="332" y2="55"/><line x1="248" y1="110" x2="332" y2="110"/><line x1="248" y1="110" x2="332" y2="165"/>
<line x1="248" y1="165" x2="332" y2="55"/><line x1="248" y1="165" x2="332" y2="110"/><line x1="248" y1="165" x2="332" y2="165"/>
<line x1="368" y1="55" x2="500" y2="70"/><line x1="368" y1="55" x2="500" y2="120"/><line x1="368" y1="55" x2="500" y2="170"/>
<line x1="368" y1="110" x2="500" y2="70"/><line x1="368" y1="110" x2="500" y2="120"/><line x1="368" y1="110" x2="500" y2="170"/>
<line x1="368" y1="165" x2="500" y2="70"/><line x1="368" y1="165" x2="500" y2="120"/><line x1="368" y1="165" x2="500" y2="170"/>
</g>
<g fill="#1a1d27" stroke-width="1.5">
<g stroke="#6c9fff"><circle cx="60" cy="70" r="20"/><circle cx="60" cy="120" r="20"/><circle cx="60" cy="170" r="20"/></g>
<g stroke="#2a2e3a"><circle cx="230" cy="55" r="17"/><circle cx="230" cy="110" r="17"/><circle cx="230" cy="165" r="17"/><circle cx="350" cy="55" r="17"/><circle cx="350" cy="110" r="17"/><circle cx="350" cy="165" r="17"/></g>
<g stroke="#4ade80"><circle cx="520" cy="70" r="20"/><circle cx="520" cy="120" r="20"/><circle cx="520" cy="170" r="20"/></g>
</g>
<g font-family="'Courier New',monospace" font-size="13" text-anchor="middle">
<g fill="#6c9fff"><text x="60" y="75">x</text><text x="60" y="125">x</text><text x="60" y="175">x</text></g>
<g fill="#8b90a0" font-size="12"><text x="230" y="60">h</text><text x="230" y="115">h</text><text x="230" y="170">h</text><text x="350" y="60">h</text><text x="350" y="115">h</text><text x="350" y="170">h</text></g>
<g fill="#4ade80"><text x="520" y="75">y</text><text x="520" y="125">y</text><text x="520" y="175">y</text></g>
</g>
<g font-family="system-ui,sans-serif" font-size="11" fill="#8b90a0" text-anchor="middle">
<text x="60" y="20">Input</text><text x="60" y="33" font-size="10">(data)</text>
<text x="290" y="20">Hidden Layers</text><text x="290" y="33" font-size="10">(learned patterns)</text>
<text x="520" y="20">Output</text><text x="520" y="33" font-size="10">(prediction)</text>
<text x="300" y="218">Each connection has a "weight" — a number that determines how much</text>
<text x="300" y="234">influence one node has on the next. Learning = adjusting weights.</text>
</g>
</svg>
