<svg viewBox="0 0 520 520" width="520" height="520" xmlns="http://www.w3.org/2000/svg">
<defs><marker id="tf-a" viewBox="0 0 10 7" refX="10" refY="3.5" markerWidth="7" markerHeight="5" orient="auto"><polygon points="0 0,10 3.5,0 7" fill="#8b90a0"/></marker></defs>
<g font-family="system-ui,sans-serif">
<text x="175" y="18" fill="#8b90a0" font-size="12" text-anchor="middle">Embedding Vectors (+ positional encoding)</text>
<line x1="175" y1="24" x2="175" y2="42" stroke="#8b90a0" stroke-width="1.5" marker-end="url(#tf-a)"/>
<rect x="60" y="48" width="230" height="42" rx="5" fill="#1a1d27" stroke="#6c9fff" stroke-width="1.5"/>
<text x="175" y="67" fill="#6c9fff" font-size="13" text-anchor="middle" font-weight="600">Self-Attention</text>
<text x="175" y="82" fill="#6c9fff" font-size="11" text-anchor="middle">(multi-head)</text>
<text x="310" y="67" fill="#8b90a0" font-size="10">"Which parts of the input</text>
<text x="310" y="80" fill="#8b90a0" font-size="10">relate to each other?"</text>
<line x1="175" y1="90" x2="175" y2="108" stroke="#8b90a0" stroke-width="1.5" marker-end="url(#tf-a)"/>
<text x="175" y="106" fill="#8b90a0" font-size="10" text-anchor="middle">Add & Norm</text>
<text x="310" y="106" fill="#8b90a0" font-size="10">Residual + layer norm</text>
<line x1="175" y1="112" x2="175" y2="130" stroke="#8b90a0" stroke-width="1.5" marker-end="url(#tf-a)"/>
<rect x="60" y="136" width="230" height="42" rx="5" fill="#1a1d27" stroke="#2a2e3a" stroke-width="1.5"/>
<text x="175" y="155" fill="#e1e4eb" font-size="13" text-anchor="middle" font-weight="600">Feed-Forward Network</text>
<text x="175" y="170" fill="#8b90a0" font-size="11" text-anchor="middle">(per token)</text>
<text x="310" y="155" fill="#8b90a0" font-size="10">"Process this pattern</text>
<text x="310" y="168" fill="#8b90a0" font-size="10">further"</text>
<line x1="175" y1="178" x2="175" y2="196" stroke="#8b90a0" stroke-width="1.5" marker-end="url(#tf-a)"/>
<text x="175" y="194" fill="#8b90a0" font-size="10" text-anchor="middle">Add & Norm</text>
<text x="310" y="194" fill="#8b90a0" font-size="10">Residual + layer norm</text>
<line x1="175" y1="200" x2="175" y2="218" stroke="#8b90a0" stroke-width="1.5" marker-end="url(#tf-a)"/>
<rect x="100" y="222" width="150" height="28" rx="14" fill="none" stroke="#8b90a0" stroke-width="1" stroke-dasharray="4,3"/>
<text x="175" y="241" fill="#8b90a0" font-size="11" text-anchor="middle">repeat 32-128x</text>
<text x="310" y="241" fill="#8b90a0" font-size="10">Stacking layers builds</text>
<text x="310" y="254" fill="#8b90a0" font-size="10">deeper understanding</text>
<line x1="175" y1="250" x2="175" y2="280" stroke="#8b90a0" stroke-width="1.5" marker-end="url(#tf-a)"/>
<rect x="50" y="286" width="250" height="42" rx="5" fill="#1a1d27" stroke="#fbbf24" stroke-width="1.5"/>
<text x="175" y="305" fill="#fbbf24" font-size="13" text-anchor="middle" font-weight="600">Output Linear Layer</text>
<text x="175" y="320" fill="#fbbf24" font-size="11" text-anchor="middle">(unembedding)</text>
<text x="310" y="305" fill="#8b90a0" font-size="10">Projects hidden states to</text>
<text x="310" y="318" fill="#8b90a0" font-size="10">vocabulary-sized logits</text>
<line x1="175" y1="328" x2="175" y2="352" stroke="#8b90a0" stroke-width="1.5" marker-end="url(#tf-a)"/>
<text x="175" y="366" fill="#8b90a0" font-size="12" text-anchor="middle">softmax</text>
<line x1="175" y1="372" x2="175" y2="396" stroke="#8b90a0" stroke-width="1.5" marker-end="url(#tf-a)"/>
<rect x="50" y="402" width="250" height="36" rx="5" fill="#1a1d27" stroke="#4ade80" stroke-width="1.5"/>
<text x="175" y="425" fill="#4ade80" font-size="13" text-anchor="middle" font-weight="600">Output Probabilities</text>
<text x="310" y="425" fill="#8b90a0" font-size="10">"What token comes next?"</text>
</g>
</svg>
